<mxfile host="Electron" agent="Mozilla/5.0 (Windows NT 10.0; Win64; x64) AppleWebKit/537.36 (KHTML, like Gecko) draw.io/28.1.2 Chrome/138.0.7204.243 Electron/37.4.0 Safari/537.36" version="28.1.2">
  <diagram name="Page-1" id="O4RVb-fNFk1rP7PNWJbt">
    <mxGraphModel dx="1792" dy="2202" grid="1" gridSize="10" guides="1" tooltips="1" connect="1" arrows="1" fold="1" page="1" pageScale="1" pageWidth="850" pageHeight="1100" math="0" shadow="0">
      <root>
        <mxCell id="0" />
        <mxCell id="1" parent="0" />
        <mxCell id="UXaW2lMi_3mQEAqdEw6w-57" value="" style="endArrow=classic;html=1;rounded=0;entryX=0.493;entryY=0.084;entryDx=0;entryDy=0;entryPerimeter=0;" edge="1" parent="1" target="UXaW2lMi_3mQEAqdEw6w-70">
          <mxGeometry width="50" height="50" relative="1" as="geometry">
            <mxPoint x="-470.83000000000004" y="-130" as="sourcePoint" />
            <mxPoint x="-470.83000000000004" y="-90" as="targetPoint" />
          </mxGeometry>
        </mxCell>
        <mxCell id="UXaW2lMi_3mQEAqdEw6w-58" value="Tiếp nhận yêu cầu&lt;div&gt;Xử lý yêu cầu theo trình tự&lt;/div&gt;" style="rounded=1;whiteSpace=wrap;html=1;" vertex="1" parent="1">
          <mxGeometry x="-530" y="-80" width="120" height="90" as="geometry" />
        </mxCell>
        <mxCell id="UXaW2lMi_3mQEAqdEw6w-59" value="" style="endArrow=classic;html=1;rounded=0;" edge="1" parent="1">
          <mxGeometry width="50" height="50" relative="1" as="geometry">
            <mxPoint x="-470.42" y="10" as="sourcePoint" />
            <mxPoint x="-470.42" y="80" as="targetPoint" />
          </mxGeometry>
        </mxCell>
        <mxCell id="UXaW2lMi_3mQEAqdEw6w-60" value="load_data()" style="text;html=1;align=center;verticalAlign=middle;resizable=0;points=[];autosize=1;strokeColor=none;fillColor=none;" vertex="1" parent="1">
          <mxGeometry x="-460" y="30" width="80" height="30" as="geometry" />
        </mxCell>
        <mxCell id="UXaW2lMi_3mQEAqdEw6w-61" value="&lt;div&gt;&amp;nbsp;Dữ liệu đầu vào đã được xác nhận.&lt;/div&gt;" style="rounded=1;whiteSpace=wrap;html=1;" vertex="1" parent="1">
          <mxGeometry x="-530" y="80" width="120" height="110" as="geometry" />
        </mxCell>
        <mxCell id="UXaW2lMi_3mQEAqdEw6w-63" value="process_task()" style="text;html=1;align=center;verticalAlign=middle;resizable=0;points=[];autosize=1;strokeColor=none;fillColor=none;" vertex="1" parent="1">
          <mxGeometry x="-605" y="220" width="100" height="30" as="geometry" />
        </mxCell>
        <mxCell id="UXaW2lMi_3mQEAqdEw6w-67" value="" style="endArrow=classic;html=1;rounded=0;" edge="1" parent="1">
          <mxGeometry width="50" height="50" relative="1" as="geometry">
            <mxPoint x="-470.48" y="190" as="sourcePoint" />
            <mxPoint x="-530" y="300" as="targetPoint" />
          </mxGeometry>
        </mxCell>
        <mxCell id="UXaW2lMi_3mQEAqdEw6w-69" value="" style="ellipse;whiteSpace=wrap;html=1;aspect=fixed;" vertex="1" parent="1">
          <mxGeometry x="-480" y="-150" width="20" height="20" as="geometry" />
        </mxCell>
        <mxCell id="UXaW2lMi_3mQEAqdEw6w-70" value="MainAgent" style="text;html=1;align=center;verticalAlign=middle;resizable=0;points=[];autosize=1;strokeColor=none;fillColor=none;" vertex="1" parent="1">
          <mxGeometry x="-510" y="-80" width="80" height="30" as="geometry" />
        </mxCell>
        <mxCell id="UXaW2lMi_3mQEAqdEw6w-71" value="" style="endArrow=none;html=1;rounded=0;" edge="1" parent="1">
          <mxGeometry width="50" height="50" relative="1" as="geometry">
            <mxPoint x="-530" y="-60" as="sourcePoint" />
            <mxPoint x="-410" y="-60" as="targetPoint" />
          </mxGeometry>
        </mxCell>
        <mxCell id="UXaW2lMi_3mQEAqdEw6w-72" value="" style="endArrow=none;html=1;rounded=0;" edge="1" parent="1">
          <mxGeometry width="50" height="50" relative="1" as="geometry">
            <mxPoint x="-530" y="109" as="sourcePoint" />
            <mxPoint x="-410" y="109" as="targetPoint" />
          </mxGeometry>
        </mxCell>
        <mxCell id="UXaW2lMi_3mQEAqdEw6w-73" value="DecisionHandler" style="text;html=1;align=center;verticalAlign=middle;whiteSpace=wrap;rounded=0;" vertex="1" parent="1">
          <mxGeometry x="-500" y="80" width="60" height="30" as="geometry" />
        </mxCell>
        <mxCell id="UXaW2lMi_3mQEAqdEw6w-78" value="" style="ellipse;whiteSpace=wrap;html=1;aspect=fixed;" vertex="1" parent="1">
          <mxGeometry x="-470" y="630" width="20" height="20" as="geometry" />
        </mxCell>
        <mxCell id="UXaW2lMi_3mQEAqdEw6w-81" value="" style="curved=1;endArrow=classic;html=1;rounded=0;exitX=0;exitY=0.75;exitDx=0;exitDy=0;" edge="1" parent="1" source="UXaW2lMi_3mQEAqdEw6w-61">
          <mxGeometry width="50" height="50" relative="1" as="geometry">
            <mxPoint x="-610" y="190" as="sourcePoint" />
            <mxPoint x="-640" y="180" as="targetPoint" />
            <Array as="points">
              <mxPoint x="-560" y="190" />
              <mxPoint x="-610" y="140" />
            </Array>
          </mxGeometry>
        </mxCell>
        <mxCell id="UXaW2lMi_3mQEAqdEw6w-83" value="Error" style="text;html=1;align=center;verticalAlign=middle;whiteSpace=wrap;rounded=0;" vertex="1" parent="1">
          <mxGeometry x="-600" y="130" width="60" height="30" as="geometry" />
        </mxCell>
        <mxCell id="UXaW2lMi_3mQEAqdEw6w-84" value="Kết quả không đạt yêu cầu." style="rounded=1;whiteSpace=wrap;html=1;" vertex="1" parent="1">
          <mxGeometry x="-760" y="160" width="120" height="110" as="geometry" />
        </mxCell>
        <mxCell id="UXaW2lMi_3mQEAqdEw6w-85" value="" style="endArrow=none;html=1;rounded=0;" edge="1" parent="1">
          <mxGeometry width="50" height="50" relative="1" as="geometry">
            <mxPoint x="-760" y="190" as="sourcePoint" />
            <mxPoint x="-640" y="190" as="targetPoint" />
          </mxGeometry>
        </mxCell>
        <mxCell id="UXaW2lMi_3mQEAqdEw6w-86" value="Fallback&amp;nbsp;" style="text;html=1;align=center;verticalAlign=middle;whiteSpace=wrap;rounded=0;" vertex="1" parent="1">
          <mxGeometry x="-730" y="160" width="60" height="30" as="geometry" />
        </mxCell>
        <mxCell id="UXaW2lMi_3mQEAqdEw6w-100" value="" style="ellipse;whiteSpace=wrap;html=1;aspect=fixed;" vertex="1" parent="1">
          <mxGeometry x="-465" y="635" width="10" height="10" as="geometry" />
        </mxCell>
        <mxCell id="UXaW2lMi_3mQEAqdEw6w-103" value="Điều kiện xác nhận&lt;div&gt;-Dữ liệu giá cổ phiếu đầy đủ và liên tục&lt;/div&gt;&lt;div&gt;-Mô hình đã được huấn luyện với độ chính xác tối thiểu đạt yêu cầu&lt;/div&gt;" style="shape=callout;whiteSpace=wrap;html=1;perimeter=calloutPerimeter;position2=0;" vertex="1" parent="1">
          <mxGeometry x="-370" y="40" width="210" height="120" as="geometry" />
        </mxCell>
        <mxCell id="UXaW2lMi_3mQEAqdEw6w-104" value="" style="endArrow=none;html=1;rounded=0;entryX=0;entryY=0;entryDx=0;entryDy=120;entryPerimeter=0;" edge="1" parent="1" target="UXaW2lMi_3mQEAqdEw6w-103">
          <mxGeometry width="50" height="50" relative="1" as="geometry">
            <mxPoint x="-408" y="170" as="sourcePoint" />
            <mxPoint x="-345.7799999999999" y="160.00000000000009" as="targetPoint" />
          </mxGeometry>
        </mxCell>
        <mxCell id="UXaW2lMi_3mQEAqdEw6w-110" value="Điều kiện kết quả công nhận là hợp lệ&lt;div&gt;-Sai số dự đoán nằm trong ngưỡng cho phép&lt;/div&gt;&lt;div&gt;-Mô hình đã được huấn luyện với số lượng epoch đủ lớn và không bị overfitting&lt;br&gt;&lt;div&gt;&lt;br&gt;&lt;/div&gt;&lt;/div&gt;" style="shape=callout;whiteSpace=wrap;html=1;perimeter=calloutPerimeter;position2=0;" vertex="1" parent="1">
          <mxGeometry x="-330" y="210" width="220" height="140" as="geometry" />
        </mxCell>
        <mxCell id="UXaW2lMi_3mQEAqdEw6w-112" value="request" style="text;html=1;align=center;verticalAlign=middle;resizable=0;points=[];autosize=1;strokeColor=none;fillColor=none;" vertex="1" parent="1">
          <mxGeometry x="-440" y="-122" width="60" height="30" as="geometry" />
        </mxCell>
        <mxCell id="UXaW2lMi_3mQEAqdEw6w-113" value="-Thu thập, làm sạch và chuẩn hóa dữ liệu đầu vào cho mô hình.&lt;div&gt;-Huấn luyện mô hình LSTM,&lt;/div&gt;&lt;div&gt;-Dự đoán giá và đưa ra các tin tức hot&lt;/div&gt;&lt;div&gt;&lt;div&gt;&lt;br&gt;&lt;/div&gt;&lt;/div&gt;" style="rounded=1;whiteSpace=wrap;html=1;" vertex="1" parent="1">
          <mxGeometry x="-620" y="300" width="140" height="210" as="geometry" />
        </mxCell>
        <mxCell id="UXaW2lMi_3mQEAqdEw6w-114" value="" style="endArrow=none;html=1;rounded=0;" edge="1" parent="1">
          <mxGeometry width="50" height="50" relative="1" as="geometry">
            <mxPoint x="-620" y="340" as="sourcePoint" />
            <mxPoint x="-480" y="340" as="targetPoint" />
          </mxGeometry>
        </mxCell>
        <mxCell id="UXaW2lMi_3mQEAqdEw6w-115" value="6Agents" style="text;html=1;align=center;verticalAlign=middle;whiteSpace=wrap;rounded=0;" vertex="1" parent="1">
          <mxGeometry x="-580" y="310" width="60" height="30" as="geometry" />
        </mxCell>
        <mxCell id="UXaW2lMi_3mQEAqdEw6w-116" value="" style="endArrow=classic;html=1;rounded=0;" edge="1" parent="1">
          <mxGeometry width="50" height="50" relative="1" as="geometry">
            <mxPoint x="-420" y="190" as="sourcePoint" />
            <mxPoint x="-390" y="300" as="targetPoint" />
          </mxGeometry>
        </mxCell>
        <mxCell id="UXaW2lMi_3mQEAqdEw6w-117" value="Hệ thống đưa ra khuyến nghị đầu tư (mua, bán, giữ) dựa trên kết quả phân tích." style="rounded=1;whiteSpace=wrap;html=1;" vertex="1" parent="1">
          <mxGeometry x="-460" y="300" width="120" height="200" as="geometry" />
        </mxCell>
        <mxCell id="UXaW2lMi_3mQEAqdEw6w-118" value="" style="endArrow=none;html=1;rounded=0;" edge="1" parent="1">
          <mxGeometry width="50" height="50" relative="1" as="geometry">
            <mxPoint x="-460" y="340" as="sourcePoint" />
            <mxPoint x="-340" y="340" as="targetPoint" />
          </mxGeometry>
        </mxCell>
        <mxCell id="UXaW2lMi_3mQEAqdEw6w-119" value="AI Chatbot&amp;nbsp;" style="text;html=1;align=center;verticalAlign=middle;whiteSpace=wrap;rounded=0;" vertex="1" parent="1">
          <mxGeometry x="-440" y="310" width="80" height="30" as="geometry" />
        </mxCell>
        <mxCell id="UXaW2lMi_3mQEAqdEw6w-120" value="assign_task()" style="text;html=1;align=center;verticalAlign=middle;resizable=0;points=[];autosize=1;strokeColor=none;fillColor=none;" vertex="1" parent="1">
          <mxGeometry x="-490" y="228" width="90" height="30" as="geometry" />
        </mxCell>
        <mxCell id="UXaW2lMi_3mQEAqdEw6w-126" value="" style="endArrow=none;html=1;rounded=0;" edge="1" parent="1">
          <mxGeometry width="50" height="50" relative="1" as="geometry">
            <mxPoint x="-540" y="560" as="sourcePoint" />
            <mxPoint x="-540" y="510" as="targetPoint" />
          </mxGeometry>
        </mxCell>
        <mxCell id="UXaW2lMi_3mQEAqdEw6w-127" value="" style="endArrow=none;html=1;rounded=0;" edge="1" parent="1">
          <mxGeometry width="50" height="50" relative="1" as="geometry">
            <mxPoint x="-540" y="560" as="sourcePoint" />
            <mxPoint x="-400" y="560" as="targetPoint" />
          </mxGeometry>
        </mxCell>
        <mxCell id="UXaW2lMi_3mQEAqdEw6w-128" value="" style="endArrow=none;html=1;rounded=0;" edge="1" parent="1">
          <mxGeometry width="50" height="50" relative="1" as="geometry">
            <mxPoint x="-400" y="560" as="sourcePoint" />
            <mxPoint x="-400" y="500" as="targetPoint" />
          </mxGeometry>
        </mxCell>
        <mxCell id="UXaW2lMi_3mQEAqdEw6w-129" value="" style="endArrow=classic;html=1;rounded=0;entryX=0.5;entryY=0;entryDx=0;entryDy=0;" edge="1" parent="1" target="UXaW2lMi_3mQEAqdEw6w-78">
          <mxGeometry width="50" height="50" relative="1" as="geometry">
            <mxPoint x="-470" y="560" as="sourcePoint" />
            <mxPoint x="-420" y="510" as="targetPoint" />
          </mxGeometry>
        </mxCell>
        <mxCell id="UXaW2lMi_3mQEAqdEw6w-130" value="aggregate_results()" style="text;html=1;align=center;verticalAlign=middle;resizable=0;points=[];autosize=1;strokeColor=none;fillColor=none;" vertex="1" parent="1">
          <mxGeometry x="-465" y="578" width="130" height="30" as="geometry" />
        </mxCell>
      </root>
    </mxGraphModel>
  </diagram>
</mxfile>
